<svg width="91" height="136" viewBox="0 0 91 136" fill="none" xmlns="http://www.w3.org/2000/svg">
<path d="M2.32422 18.3513V110.378L14.7461 122.823H76.3612L88.6335 110.528V18.3513L75.2296 4.92267H15.533L2.32422 18.3513Z" stroke="#9042FF" stroke-width="1.06859" stroke-miterlimit="10"/>
<path d="M75.4507 4.92266H80.3544C84.0355 4.92266 87.0271 7.91333 87.0271 11.6077V16.6833C87.0271 12.8261 89.479 9.34025 89.479 9.34025V1.32605H82.4681C82.4681 1.32605 78.4814 4.92266 73.7598 4.92266" stroke="#9042FF" stroke-width="1.06859" stroke-miterlimit="10"/>
<path d="M86.2268 6.51904C87.29 6.51904 88.1519 5.65557 88.1519 4.59042C88.1519 3.52528 87.29 2.6618 86.2268 2.6618C85.1636 2.6618 84.3018 3.52528 84.3018 4.59042C84.3018 5.65557 85.1636 6.51904 86.2268 6.51904Z" stroke="#9042FF" stroke-width="1.06859" stroke-miterlimit="10"/>
<path d="M15.5068 4.92266H10.6031C6.92203 4.92266 3.93037 7.91333 3.93037 11.6077V16.6833C3.93037 12.8261 1.47852 9.34025 1.47852 9.34025V1.32605H8.4894C8.4894 1.32605 12.4761 4.92266 17.1977 4.92266" stroke="#9042FF" stroke-width="1.06859" stroke-miterlimit="10"/>
<path d="M4.72975 6.51904C5.79294 6.51904 6.65482 5.65557 6.65482 4.59042C6.65482 3.52528 5.79294 2.6618 4.72975 2.6618C3.66657 2.6618 2.80469 3.52528 2.80469 4.59042C2.80469 5.65557 3.66657 6.51904 4.72975 6.51904Z" stroke="#9042FF" stroke-width="1.06859" stroke-miterlimit="10"/>
<path d="M15.5068 122.836H10.6031C6.92203 122.836 3.93037 119.845 3.93037 116.151V112.169C3.93037 116.027 1.47852 118.418 1.47852 118.418V126.432H8.4894C8.4894 126.432 12.4761 122.836 17.1977 122.836" stroke="#9042FF" stroke-width="1.06859" stroke-miterlimit="10"/>
<path d="M4.72975 125.097C5.79294 125.097 6.65482 124.233 6.65482 123.168C6.65482 122.103 5.79294 121.239 4.72975 121.239C3.66657 121.239 2.80469 122.103 2.80469 123.168C2.80469 124.233 3.66657 125.097 4.72975 125.097Z" stroke="#9042FF" stroke-width="1.06859" stroke-miterlimit="10"/>
<path d="M75.4507 122.836H80.3544C84.0355 122.836 87.0271 119.845 87.0271 116.151V112.17C87.0271 116.027 89.479 118.418 89.479 118.418V126.432H82.4681C82.4681 126.432 78.4814 122.836 73.7598 122.836" stroke="#9042FF" stroke-width="1.06859" stroke-miterlimit="10"/>
<path d="M86.2268 125.097C87.29 125.097 88.1519 124.233 88.1519 123.168C88.1519 122.103 87.29 121.239 86.2268 121.239C85.1636 121.239 84.3018 122.103 84.3018 123.168C84.3018 124.233 85.1636 125.097 86.2268 125.097Z" stroke="#9042FF" stroke-width="1.06859" stroke-miterlimit="10"/>
<path d="M28.2205 69.2512L2.55078 43.5341" stroke="#9042FF" stroke-width="0.534295" stroke-miterlimit="10"/>
<path d="M33.8591 63.1526L2.55078 31.7864" stroke="#9042FF" stroke-width="0.534295" stroke-miterlimit="10"/>
<path d="M62.957 69.2512L88.6332 43.5341" stroke="#9042FF" stroke-width="0.534295" stroke-miterlimit="10"/>
<path d="M57.3252 63.1526L88.6335 31.7864" stroke="#9042FF" stroke-width="0.534295" stroke-miterlimit="10"/>
<path d="M62.8467 109.218L77.031 122.823" stroke="#9042FF" stroke-width="0.534295" stroke-miterlimit="10"/>
<path d="M57.208 114.769L65.2465 122.823" stroke="#9042FF" stroke-width="0.534295" stroke-miterlimit="10"/>
<path d="M28.1111 109.218L14.2715 122.822" stroke="#9042FF" stroke-width="0.534295" stroke-miterlimit="10"/>
<path d="M33.7429 114.769L25.7109 122.823" stroke="#9042FF" stroke-width="0.534295" stroke-miterlimit="10"/>
<path d="M21.7568 115.466V120.158C21.7568 120.627 22.134 121.005 22.6023 121.005H27.5255" stroke="#9042FF" stroke-width="0.443465" stroke-miterlimit="10"/>
<path d="M63.2891 121.005H68.3359C68.8041 121.005 69.1813 120.627 69.1813 120.158V115.225" stroke="#9042FF" stroke-width="0.443465" stroke-miterlimit="10"/>
<path d="M69.1818 62.5336V57.8423C69.1818 57.3732 68.8046 56.9953 68.3363 56.9953H63.4131" stroke="#9042FF" stroke-width="1.06859" stroke-miterlimit="10"/>
<path d="M24.3193 65.3354V113.14" stroke="#9042FF" stroke-width="1.06859" stroke-miterlimit="10"/>
<path d="M66.5801 65.3354V113.14" stroke="#9042FF" stroke-width="1.06859" stroke-miterlimit="10"/>
<path d="M30.3154 59.6016H60.7588" stroke="#9042FF" stroke-width="1.06859" stroke-miterlimit="10"/>
<path d="M31.2041 118.333H60.7586" stroke="#9042FF" stroke-width="1.06859" stroke-miterlimit="10" stroke-linecap="square"/>
<path d="M27.6491 56.9953H22.6023C22.134 56.9953 21.7568 57.3732 21.7568 57.8423V62.7746" stroke="#9042FF" stroke-width="1.06859" stroke-miterlimit="10"/>
<path d="M45.4821 23.9547C48.9876 23.9547 52.1548 25.4012 54.4181 27.7338C54.5872 27.9097 54.8603 27.9292 55.0489 27.7794L56.3041 26.7955C56.5252 26.6261 56.5512 26.3003 56.3626 26.0984C53.6311 23.2119 49.768 21.4136 45.4821 21.4136C41.1963 21.4136 37.3331 23.2119 34.6016 26.0984C34.413 26.3003 34.439 26.6261 34.6601 26.7955L35.9153 27.7794C36.1039 27.9292 36.3771 27.9032 36.5462 27.7338C38.8094 25.4012 41.9767 23.9547 45.4821 23.9547Z" stroke="#9042FF" stroke-width="0.534295" stroke-miterlimit="10"/>
<path d="M33.0084 36.4516C33.0084 34.0278 33.6978 31.7669 34.888 29.8513C35.018 29.6428 34.9725 29.3757 34.7839 29.2258L33.5287 28.242C33.3076 28.0725 32.9889 28.1182 32.8393 28.3527C31.3435 30.6918 30.4785 33.4675 30.4785 36.4516C30.4785 39.4358 31.35 42.2114 32.8393 44.5505C32.9889 44.7851 33.3141 44.8307 33.5287 44.6613L34.7839 43.6774C34.979 43.5276 35.018 43.2604 34.888 43.0519C33.6978 41.1363 33.0084 38.8754 33.0084 36.4516Z" stroke="#9042FF" stroke-width="0.534295" stroke-miterlimit="10"/>
<path d="M45.4821 48.9485C41.9767 48.9485 38.8094 47.502 36.5462 45.1694C36.3771 44.9935 36.1039 44.974 35.9153 45.1238L34.6601 46.1077C34.439 46.2771 34.413 46.6029 34.6016 46.8049C37.3331 49.6913 41.1963 51.4896 45.4821 51.4896C49.768 51.4896 53.6311 49.6913 56.3626 46.8049C56.5512 46.6029 56.5252 46.2771 56.3041 46.1077L55.0489 45.1238C54.8603 44.974 54.5872 45 54.4181 45.1694C52.1548 47.502 48.9876 48.9485 45.4821 48.9485Z" stroke="#9042FF" stroke-width="0.534295" stroke-miterlimit="10"/>
<path d="M57.4351 28.242L56.1799 29.2258C55.9847 29.3757 55.9457 29.6428 56.0758 29.8513C57.266 31.7669 57.9553 34.0278 57.9553 36.4516C57.9553 38.8754 57.266 41.1363 56.0758 43.0519C55.9457 43.2604 55.9913 43.5276 56.1799 43.6774L57.4351 44.6613C57.6562 44.8307 57.9748 44.7851 58.1244 44.5505C59.6203 42.2114 60.4852 39.4358 60.4852 36.4516C60.4852 33.4675 59.6138 30.6918 58.1244 28.3527C57.9748 28.1182 57.6497 28.0725 57.4351 28.242Z" stroke="#9042FF" stroke-width="0.534295" stroke-miterlimit="10"/>
<path d="M45.4821 25.1862C42.4059 25.1862 39.6289 26.4306 37.5998 28.4374C37.3982 28.6329 37.4242 28.9717 37.6453 29.1476L39.3558 30.4899C39.5379 30.6332 39.798 30.6202 39.9736 30.4573C41.4239 29.1216 43.3555 28.3006 45.4821 28.3006C47.6088 28.3006 49.5404 29.1216 50.9907 30.4573C51.1663 30.6137 51.4199 30.6332 51.6085 30.4899L53.319 29.1476C53.5401 28.9717 53.5661 28.6394 53.3645 28.4374C51.3354 26.4306 48.5584 25.1862 45.4821 25.1862Z" stroke="#9042FF" stroke-width="0.534295" stroke-miterlimit="10"/>
<path d="M53.625 36.4517C53.625 37.8721 53.2543 39.2013 52.617 40.361C52.5064 40.5695 52.5454 40.8236 52.734 40.9735L54.4575 42.3222C54.6786 42.4982 55.0103 42.446 55.1534 42.1984C56.1549 40.5174 56.7337 38.5497 56.7337 36.4517C56.7337 34.3537 56.1549 32.3859 55.1534 30.7049C55.0103 30.4638 54.6786 30.4117 54.4575 30.5811L52.734 31.9298C52.5454 32.0732 52.5064 32.3338 52.617 32.5423C53.2543 33.7021 53.625 35.0313 53.625 36.4517Z" stroke="#9042FF" stroke-width="0.534295" stroke-miterlimit="10"/>
<path d="M37.346 36.4516C37.346 35.0312 37.7167 33.702 38.3541 32.5422C38.4646 32.3337 38.4256 32.0796 38.237 31.9298L36.5136 30.581C36.2924 30.4051 35.9608 30.4572 35.8177 30.7048C34.8161 32.3859 34.2373 34.3536 34.2373 36.4516C34.2373 38.5496 34.8161 40.5173 35.8177 42.1984C35.9608 42.4394 36.2924 42.4916 36.5136 42.3221L38.237 40.9734C38.4256 40.8301 38.4646 40.5695 38.3541 40.361C37.7167 39.2012 37.346 37.872 37.346 36.4516Z" stroke="#9042FF" stroke-width="0.534295" stroke-miterlimit="10"/>
<path d="M45.4821 44.6026C43.3555 44.6026 41.4239 43.7817 39.9736 42.446C39.798 42.2896 39.5444 42.2701 39.3558 42.4134L37.6453 43.7556C37.4242 43.9315 37.3982 44.2638 37.5998 44.4658C39.6289 46.4726 42.4059 47.7171 45.4821 47.7171C48.5584 47.7171 51.3354 46.4726 53.3645 44.4658C53.5661 44.2703 53.5401 43.9315 53.319 43.7556L51.6085 42.4134C51.4264 42.2701 51.1663 42.2831 50.9907 42.446C49.5404 43.7817 47.6088 44.6026 45.4821 44.6026Z" stroke="#9042FF" stroke-width="0.534295" stroke-miterlimit="10"/>
<path d="M45.4826 40.4588C44.6501 40.4588 43.8827 40.2047 43.2453 39.7747C43.0762 39.6574 42.8486 39.6769 42.6925 39.8072L40.9821 41.1495C40.7414 41.3384 40.7414 41.6968 40.9756 41.8922C42.1982 42.9087 43.7656 43.5277 45.4826 43.5277C47.1995 43.5277 48.7669 42.9152 49.9896 41.8922C50.2237 41.6968 50.2172 41.3384 49.9831 41.1495L48.2726 39.8072C48.11 39.6834 47.8889 39.6639 47.7198 39.7747C47.0825 40.2047 46.315 40.4588 45.4826 40.4588Z" stroke="#9042FF" stroke-width="0.534295" stroke-miterlimit="10"/>
<path d="M45.4821 32.4446C46.3146 32.4446 47.082 32.6987 47.7193 33.1287C47.8884 33.246 48.1161 33.2265 48.2721 33.0961L49.9826 31.7539C50.2232 31.565 50.2232 31.2066 49.9891 31.0112C48.7664 29.9947 47.1991 29.3757 45.4821 29.3757C43.7652 29.3757 42.1978 29.9882 40.9751 31.0112C40.741 31.2066 40.7475 31.565 40.9816 31.7539L42.6921 33.0961C42.8547 33.2199 43.0758 33.2395 43.2449 33.1287C43.8822 32.6987 44.6496 32.4446 45.4821 32.4446Z" stroke="#9042FF" stroke-width="0.534295" stroke-miterlimit="10"/>
<path d="M49.489 36.4517C49.489 36.9339 49.4044 37.39 49.2483 37.82C49.1768 38.0089 49.2288 38.2174 49.3849 38.3412L51.1149 39.6965C51.3555 39.8854 51.7067 39.8007 51.8368 39.5271C52.292 38.5953 52.5457 37.5528 52.5457 36.4517C52.5457 35.3506 52.2855 34.3081 51.8368 33.3763C51.7067 33.1027 51.3555 33.018 51.1149 33.2069L49.3849 34.5622C49.2288 34.686 49.1768 34.8945 49.2483 35.0834C49.4044 35.5135 49.489 35.9696 49.489 36.4517Z" stroke="#9042FF" stroke-width="0.534295" stroke-miterlimit="10"/>
<path d="M39.8624 39.7029L41.5924 38.3477C41.7485 38.2239 41.8005 38.0154 41.729 37.8265C41.5729 37.3964 41.4883 36.9403 41.4883 36.4582C41.4883 35.976 41.5729 35.5134 41.729 35.0899C41.8005 34.9009 41.7485 34.6924 41.5924 34.5687L39.8624 33.2134C39.6218 33.0245 39.2706 33.1092 39.1405 33.3828C38.6853 34.3145 38.4316 35.357 38.4316 36.4582C38.4316 37.5593 38.6918 38.6018 39.1405 39.5335C39.2706 39.8072 39.6218 39.8919 39.8624 39.7029Z" stroke="#9042FF" stroke-width="0.534295" stroke-miterlimit="10"/>
<path d="M58.3719 18.247H32.5981C29.7534 18.247 27.4473 20.5574 27.4473 23.4074V49.2287C27.4473 52.0787 29.7534 54.3891 32.5981 54.3891H58.3719C61.2166 54.3891 63.5227 52.0787 63.5227 49.2287V23.4074C63.5227 20.5574 61.2166 18.247 58.3719 18.247Z" stroke="#9042FF" stroke-width="0.534295" stroke-miterlimit="10"/>
<path d="M23.9619 124.947V122.823H21.8742C20.1443 122.823 20.1768 125.005 20.1768 125.005V135.326H20.9182V132.01" stroke="#9042FF" stroke-width="0.534295" stroke-miterlimit="10"/>
<path d="M23.9615 123.976H21.8088C21.8088 123.976 20.1699 123.976 20.1699 125.494" stroke="#9042FF" stroke-width="0.534295" stroke-miterlimit="10"/>
<path d="M31.6357 124.947V122.823H33.7234C35.4534 122.823 35.4208 125.005 35.4208 125.005V135.326H34.6794V132.01" stroke="#9042FF" stroke-width="0.534295" stroke-miterlimit="10"/>
<path d="M31.6357 123.976H33.7884C33.7884 123.976 35.4273 123.976 35.4273 125.494" stroke="#9042FF" stroke-width="0.534295" stroke-miterlimit="10"/>
<path d="M21.1387 129.925V131.71C21.1387 132.199 21.5354 132.596 22.0232 132.596H33.5736C34.0613 132.596 34.458 132.199 34.458 131.71V129.925" stroke="#9042FF" stroke-width="0.534295" stroke-miterlimit="10"/>
<path d="M41.6387 124.947V122.823H39.551C37.821 122.823 37.8536 125.005 37.8536 125.005V135.326H38.595V132.01" stroke="#9042FF" stroke-width="0.534295" stroke-miterlimit="10"/>
<path d="M41.6383 123.976H39.4856C39.4856 123.976 37.8467 123.976 37.8467 125.494" stroke="#9042FF" stroke-width="0.534295" stroke-miterlimit="10"/>
<path d="M49.3135 124.947V122.823H51.4011C53.1311 122.823 53.0986 125.005 53.0986 125.005V135.326H52.3572V132.01" stroke="#9042FF" stroke-width="0.534295" stroke-miterlimit="10"/>
<path d="M49.3125 123.976H51.4652C51.4652 123.976 53.1041 123.976 53.1041 125.494" stroke="#9042FF" stroke-width="0.534295" stroke-miterlimit="10"/>
<path d="M38.8164 129.925V131.71C38.8164 132.199 39.2131 132.596 39.7009 132.596H51.2513C51.7391 132.596 52.1358 132.199 52.1358 131.71V129.925" stroke="#9042FF" stroke-width="0.534295" stroke-miterlimit="10"/>
<path d="M59.3144 124.947V122.823H57.2268C55.4968 122.823 55.5293 125.005 55.5293 125.005V135.326H56.2707V132.01" stroke="#9042FF" stroke-width="0.534295" stroke-miterlimit="10"/>
<path d="M59.3141 123.976H57.1614C57.1614 123.976 55.5225 123.976 55.5225 125.494" stroke="#9042FF" stroke-width="0.534295" stroke-miterlimit="10"/>
<path d="M66.9961 124.947V122.823H69.0837C70.8137 122.823 70.7812 125.005 70.7812 125.005V135.326H70.0398V132.01" stroke="#9042FF" stroke-width="0.534295" stroke-miterlimit="10"/>
<path d="M66.9961 123.976H69.1488C69.1488 123.976 70.7877 123.976 70.7877 125.494" stroke="#9042FF" stroke-width="0.534295" stroke-miterlimit="10"/>
<path d="M56.499 129.925V131.71C56.499 132.199 56.8957 132.596 57.3835 132.596H68.9339C69.4217 132.596 69.8184 132.199 69.8184 131.71V129.925" stroke="#9042FF" stroke-width="0.534295" stroke-miterlimit="10"/>
</svg>
