<svg width="151" height="229" viewBox="0 0 151 229" fill="none" xmlns="http://www.w3.org/2000/svg">
<g clip-path="url(#clip0_2002_364)">
<path d="M1.98625 29.4581L1.34008 28.8229L1.08017 29.0874V29.4581H1.98625ZM1.98625 185.698H1.08017V186.073L1.34475 186.338L1.98625 185.698ZM23.0618 206.827L22.4203 207.467L22.6858 207.733H23.0618V206.827ZM127.601 206.827V207.733H127.977L128.242 207.467L127.601 206.827ZM148.423 185.953L149.064 186.593L149.329 186.327V185.953H148.423ZM148.423 29.4581H149.329V29.0835L149.064 28.8182L148.423 29.4581ZM125.681 6.65926L126.322 6.01937L126.057 5.75318H125.681V6.65926ZM24.3969 6.65926V5.75318H24.0171L23.7508 6.02409L24.3969 6.65926ZM149.857 14.1593L150.599 14.6804L150.763 14.4459V14.1593H149.857ZM149.857 0.55302H150.763V-0.353057H149.857V0.55302ZM137.962 0.55302V-0.353057H137.614L137.355 -0.11954L137.962 0.55302ZM0.551758 14.1593H-0.354319V14.4459L-0.189516 14.6803L0.551758 14.1593ZM0.551758 0.552979V-0.353099H-0.354319V0.552979H0.551758ZM12.4468 0.552979L13.0539 -0.119582L12.7952 -0.353099H12.4468V0.552979ZM0.551758 199.349L-0.0810816 198.7L-0.354319 198.967V199.349H0.551758ZM0.551758 212.955H-0.354319V213.861H0.551758V212.955ZM12.4468 212.955V213.861H12.7952L13.0539 213.628L12.4468 212.955ZM149.857 199.349H150.763V198.967L150.49 198.7L149.857 199.349ZM149.857 212.955V213.861H150.763V212.955H149.857ZM137.962 212.955L137.355 213.628L137.614 213.861H137.962V212.955ZM50.986 198.299H50.0799V200.111H50.986V198.299ZM1.08017 29.4581V185.698H2.89232V29.4581H1.08017ZM1.34475 186.338L22.4203 207.467L23.7033 206.187L2.62774 185.058L1.34475 186.338ZM23.0618 207.733H127.601V205.921H23.0618V207.733ZM128.242 207.467L149.064 186.593L147.781 185.313L126.959 206.187L128.242 207.467ZM149.329 185.953V29.4581H147.517V185.953H149.329ZM149.064 28.8182L126.322 6.01937L125.039 7.29915L147.781 30.098L149.064 28.8182ZM125.681 5.75318H24.3969V7.56534H125.681V5.75318ZM23.7508 6.02409L1.34008 28.8229L2.63242 30.0933L25.0431 7.29443L23.7508 6.02409ZM126.056 7.56534H134.376V5.75319H126.056V7.56534ZM134.376 7.56534C140.12 7.56534 144.791 12.2356 144.791 18.0089H146.603C146.603 11.2379 141.124 5.75319 134.376 5.75319V7.56534ZM144.791 18.0089V26.6262H146.603V18.0089H144.791ZM146.603 26.6262C146.603 23.5314 147.59 20.5485 148.603 18.3106C149.106 17.1975 149.61 16.283 149.986 15.6488C150.174 15.332 150.33 15.086 150.438 14.921C150.491 14.8385 150.533 14.7764 150.561 14.7358C150.574 14.7155 150.585 14.7007 150.591 14.6914C150.594 14.6867 150.596 14.6835 150.598 14.6816C150.598 14.6807 150.599 14.6801 150.599 14.6799C150.599 14.6798 150.599 14.6798 150.599 14.6799C150.599 14.6799 150.599 14.68 150.599 14.6801C150.599 14.6802 150.599 14.6804 149.857 14.1593C149.116 13.6383 149.116 13.6385 149.116 13.6387C149.116 13.6388 149.115 13.6391 149.115 13.6393C149.115 13.6397 149.115 13.6403 149.114 13.6409C149.113 13.6421 149.112 13.6437 149.111 13.6456C149.108 13.6495 149.104 13.6549 149.1 13.6616C149.09 13.6751 149.077 13.6943 149.061 13.719C149.027 13.7683 148.979 13.8397 148.919 13.9319C148.799 14.1161 148.63 14.3836 148.428 14.7239C148.024 15.4041 147.488 16.3784 146.952 17.5634C145.885 19.9218 144.791 23.1724 144.791 26.6262H146.603ZM150.763 14.1593V0.55302H148.951V14.1593H150.763ZM149.857 -0.353057H137.962V1.4591H149.857V-0.353057ZM137.962 0.55302C137.355 -0.11954 137.355 -0.119692 137.355 -0.11982C137.355 -0.119832 137.356 -0.119937 137.356 -0.119961C137.356 -0.12001 137.356 -0.119966 137.355 -0.119831C137.355 -0.119561 137.354 -0.118925 137.353 -0.117931C137.351 -0.115943 137.347 -0.112517 137.342 -0.107702C137.331 -0.0980714 137.314 -0.0828828 137.29 -0.0625063C137.243 -0.021749 137.172 0.039735 137.076 0.11899C136.886 0.277545 136.602 0.506948 136.235 0.783627C135.5 1.33754 134.437 2.07786 133.132 2.81795C130.508 4.30574 126.973 5.75319 123.187 5.75319V7.56534C127.412 7.56534 131.265 5.95967 134.026 4.39434C135.413 3.60786 136.542 2.82163 137.326 2.23061C137.718 1.93483 138.025 1.68719 138.236 1.51181C138.341 1.42409 138.422 1.35439 138.478 1.3057C138.507 1.28135 138.528 1.26225 138.543 1.24878C138.551 1.24204 138.557 1.2367 138.561 1.23282C138.564 1.23088 138.565 1.22931 138.567 1.2281C138.567 1.22749 138.568 1.22698 138.568 1.22656C138.569 1.22635 138.569 1.22611 138.569 1.226C138.569 1.22578 138.569 1.22558 137.962 0.55302ZM146.7 6.0951C146.7 7.40522 145.642 8.46339 144.34 8.46339V10.2755C146.647 10.2755 148.513 8.40175 148.513 6.0951H146.7ZM144.34 8.46339C143.039 8.46339 141.98 7.40522 141.98 6.0951H140.168C140.168 8.40175 142.034 10.2755 144.34 10.2755V8.46339ZM141.98 6.0951C141.98 4.78499 143.039 3.72682 144.34 3.72682V1.91466C142.034 1.91466 140.168 3.78846 140.168 6.0951H141.98ZM144.34 3.72682C145.642 3.72682 146.7 4.78499 146.7 6.0951H148.513C148.513 3.78846 146.647 1.91466 144.34 1.91466V3.72682ZM24.3528 5.75314H16.0329V7.5653H24.3528V5.75314ZM16.0329 5.75314C9.2855 5.75314 3.80562 11.2379 3.80562 18.0089H5.61777C5.61777 12.2355 10.2895 7.5653 16.0329 7.5653V5.75314ZM3.80562 18.0089V26.6262H5.61777V18.0089H3.80562ZM5.61777 26.6262C5.61777 23.1723 4.52446 19.9218 3.45721 17.5634C2.92092 16.3783 2.38456 15.404 1.98094 14.7239C1.77896 14.3836 1.60973 14.1161 1.48971 13.9318C1.42968 13.8397 1.38192 13.7683 1.34847 13.7189C1.33174 13.6942 1.31859 13.6751 1.30926 13.6616C1.3046 13.6548 1.3009 13.6495 1.29818 13.6456C1.29682 13.6436 1.29571 13.6421 1.29485 13.6408C1.29442 13.6402 1.29406 13.6397 1.29375 13.6393C1.2936 13.639 1.29342 13.6388 1.29334 13.6387C1.29318 13.6384 1.29303 13.6382 0.551758 14.1593C-0.189516 14.6803 -0.189632 14.6802 -0.189733 14.68C-0.189746 14.68 -0.189831 14.6799 -0.189856 14.6798C-0.189907 14.6798 -0.189895 14.6798 -0.189821 14.6799C-0.189673 14.6801 -0.189276 14.6807 -0.188634 14.6816C-0.187351 14.6834 -0.185089 14.6867 -0.18188 14.6913C-0.175461 14.7006 -0.165255 14.7155 -0.151514 14.7358C-0.124028 14.7763 -0.0824185 14.8385 -0.0286964 14.9209C0.0787764 15.0859 0.234544 15.3319 0.422554 15.6487C0.798921 16.2829 1.30255 17.1975 1.80624 18.3105C2.81897 20.5484 3.80562 23.5313 3.80562 26.6262H5.61777ZM1.45783 14.1593V0.552979H-0.354319V14.1593H1.45783ZM0.551758 1.45906H12.4468V-0.353099H0.551758V1.45906ZM12.4468 0.552979C11.8396 1.22554 11.8398 1.22574 11.8401 1.22596C11.8402 1.22606 11.8405 1.22631 11.8407 1.22652C11.8412 1.22694 11.8417 1.22745 11.8424 1.22805C11.8437 1.22926 11.8455 1.23084 11.8477 1.23278C11.852 1.23666 11.858 1.242 11.8656 1.24873C11.8808 1.26221 11.9025 1.28131 11.9306 1.30566C11.9866 1.35435 12.068 1.42405 12.1734 1.51176C12.3841 1.68714 12.691 1.93479 13.0833 2.23057C13.8672 2.82159 14.9961 3.60782 16.3832 4.3943C19.144 5.95963 22.9966 7.5653 27.2217 7.5653V5.75314C23.4359 5.75314 19.901 4.3057 17.277 2.8179C15.9718 2.07782 14.909 1.33749 14.1743 0.783585C13.8073 0.506906 13.5232 0.277503 13.3327 0.118948C13.2375 0.0396928 13.1657 -0.0217912 13.1188 -0.0625486C13.0953 -0.0829251 13.0781 -0.0981137 13.0672 -0.107745C13.0618 -0.11256 13.0579 -0.115985 13.0557 -0.117973C13.0546 -0.118968 13.0539 -0.119603 13.0536 -0.119873C13.0534 -0.120008 13.0534 -0.120052 13.0534 -0.120004C13.0535 -0.11998 13.0536 -0.119874 13.0536 -0.119862C13.0537 -0.119734 13.0539 -0.119582 12.4468 0.552979ZM8.42915 6.09508C8.42915 7.40519 7.37037 8.46337 6.06907 8.46337V10.2755C8.37548 10.2755 10.2413 8.40173 10.2413 6.09508H8.42915ZM6.06907 8.46337C4.76778 8.46337 3.70899 7.40519 3.70899 6.09508H1.89684C1.89684 8.40173 3.76267 10.2755 6.06907 10.2755V8.46337ZM3.70899 6.09508C3.70899 4.78497 4.76778 3.7268 6.06907 3.7268V1.91464C3.76267 1.91464 1.89684 3.78843 1.89684 6.09508H3.70899ZM6.06907 3.7268C7.37037 3.7268 8.42915 4.78497 8.42915 6.09508H10.2413C10.2413 3.78843 8.37548 1.91464 6.06907 1.91464V3.7268ZM24.3528 205.943H16.0329V207.755H24.3528V205.943ZM16.0329 205.943C10.2895 205.943 5.61777 201.272 5.61777 195.499H3.80562C3.80562 202.27 9.2855 207.755 16.0329 207.755V205.943ZM5.61777 195.499V188.74H3.80562V195.499H5.61777ZM3.80562 188.74C3.80562 191.819 2.82799 194.318 1.8436 196.053C1.3518 196.92 0.861104 197.592 0.496828 198.043C0.314884 198.268 0.165078 198.438 0.0632983 198.548C0.0124288 198.604 -0.026377 198.644 -0.0511235 198.67C-0.0634945 198.683 -0.0723442 198.692 -0.0774226 198.697C-0.0799615 198.699 -0.0815569 198.701 -0.0821774 198.701C-0.0824876 198.702 -0.082554 198.702 -0.0823727 198.702C-0.0822821 198.701 -0.0821295 198.701 -0.0819145 198.701C-0.0818071 198.701 -0.0815986 198.701 -0.0815451 198.701C-0.0813212 198.701 -0.0810816 198.7 0.551758 199.349C1.1846 199.997 1.18487 199.997 1.18516 199.997C1.18527 199.997 1.18558 199.996 1.18581 199.996C1.18628 199.996 1.18681 199.995 1.1874 199.994C1.18859 199.993 1.19003 199.992 1.19172 199.99C1.1951 199.987 1.19947 199.983 1.20481 199.977C1.21547 199.967 1.22998 199.952 1.24808 199.933C1.28427 199.896 1.33483 199.843 1.39771 199.775C1.52343 199.638 1.69862 199.439 1.90667 199.181C2.32238 198.667 2.87167 197.914 3.41985 196.947C4.51543 195.016 5.61777 192.21 5.61777 188.74H3.80562ZM-0.354319 199.349V212.955H1.45783V199.349H-0.354319ZM0.551758 213.861H12.4468V212.049H0.551758V213.861ZM12.4468 212.955C13.0539 213.628 13.0537 213.628 13.0536 213.628C13.0536 213.628 13.0535 213.628 13.0534 213.628C13.0534 213.628 13.0534 213.628 13.0536 213.628C13.0539 213.628 13.0546 213.627 13.0557 213.626C13.0579 213.624 13.0618 213.621 13.0672 213.616C13.0781 213.606 13.0953 213.591 13.1188 213.571C13.1657 213.53 13.2375 213.468 13.3327 213.389C13.5232 213.231 13.8073 213.001 14.1743 212.724C14.909 212.171 15.9718 211.43 17.277 210.69C19.901 209.202 23.4359 207.755 27.2217 207.755V205.943C22.9966 205.943 19.144 207.548 16.3832 209.114C14.9961 209.9 13.8672 210.686 13.0833 211.277C12.691 211.573 12.3841 211.821 12.1734 211.996C12.068 212.084 11.9866 212.154 11.9306 212.202C11.9025 212.227 11.8808 212.246 11.8656 212.259C11.858 212.266 11.852 212.271 11.8477 212.275C11.8455 212.277 11.8437 212.279 11.8424 212.28C11.8417 212.281 11.8412 212.281 11.8407 212.282C11.8405 212.282 11.8402 212.282 11.8401 212.282C11.8398 212.282 11.8396 212.282 12.4468 212.955ZM8.42915 207.413C8.42915 208.723 7.37037 209.781 6.06907 209.781V211.593C8.37548 211.593 10.2413 209.72 10.2413 207.413H8.42915ZM6.06907 209.781C4.76778 209.781 3.70899 208.723 3.70899 207.413H1.89684C1.89684 209.72 3.76267 211.593 6.06907 211.593V209.781ZM3.70899 207.413C3.70899 206.103 4.76778 205.045 6.06907 205.045V203.233C3.76267 203.233 1.89684 205.106 1.89684 207.413H3.70899ZM6.06907 205.045C7.37037 205.045 8.42915 206.103 8.42915 207.413H10.2413C10.2413 205.106 8.37548 203.233 6.06907 203.233V205.045ZM126.056 207.755H134.376V205.943H126.056V207.755ZM134.376 207.755C141.124 207.755 146.603 202.27 146.603 195.499H144.791C144.791 201.272 140.12 205.943 134.376 205.943V207.755ZM146.603 195.499V188.74H144.791V195.499H146.603ZM144.791 188.74C144.791 192.21 145.894 195.016 146.989 196.947C147.537 197.914 148.087 198.667 148.502 199.181C148.71 199.439 148.886 199.638 149.011 199.775C149.074 199.843 149.125 199.896 149.161 199.933C149.179 199.952 149.194 199.967 149.204 199.977C149.21 199.983 149.214 199.987 149.217 199.99C149.219 199.992 149.22 199.993 149.222 199.994C149.222 199.995 149.223 199.996 149.223 199.996C149.223 199.996 149.224 199.997 149.224 199.997C149.224 199.997 149.224 199.997 149.857 199.349C150.49 198.7 150.49 198.701 150.491 198.701C150.491 198.701 150.491 198.701 150.491 198.701C150.491 198.701 150.491 198.701 150.491 198.702C150.492 198.702 150.492 198.702 150.491 198.701C150.491 198.701 150.489 198.699 150.486 198.697C150.481 198.692 150.473 198.683 150.46 198.67C150.435 198.644 150.397 198.604 150.346 198.549C150.244 198.438 150.094 198.268 149.912 198.043C149.548 197.592 149.057 196.92 148.565 196.053C147.581 194.318 146.603 191.819 146.603 188.74H144.791ZM148.951 199.349V212.955H150.763V199.349H148.951ZM149.857 212.049H137.962V213.861H149.857V212.049ZM137.962 212.955C138.569 212.283 138.569 212.282 138.569 212.282C138.569 212.282 138.569 212.282 138.568 212.282C138.568 212.281 138.567 212.281 138.567 212.28C138.565 212.279 138.564 212.277 138.561 212.275C138.557 212.271 138.551 212.266 138.543 212.259C138.528 212.246 138.507 212.227 138.478 212.202C138.422 212.154 138.341 212.084 138.236 211.996C138.025 211.821 137.718 211.573 137.326 211.277C136.542 210.686 135.413 209.9 134.026 209.114C131.265 207.548 127.412 205.943 123.187 205.943V207.755C126.973 207.755 130.508 209.202 133.132 210.69C134.437 211.43 135.5 212.171 136.235 212.724C136.602 213.001 136.886 213.231 137.076 213.389C137.172 213.468 137.243 213.53 137.29 213.571C137.314 213.591 137.331 213.606 137.342 213.616C137.347 213.621 137.351 213.624 137.353 213.626C137.354 213.627 137.355 213.628 137.355 213.628C137.356 213.628 137.356 213.628 137.356 213.628C137.356 213.628 137.355 213.628 137.355 213.628C137.355 213.628 137.355 213.628 137.962 212.955ZM146.7 207.413C146.7 208.723 145.642 209.781 144.34 209.781V211.593C146.647 211.593 148.513 209.72 148.513 207.413H146.7ZM144.34 209.781C143.039 209.781 141.98 208.723 141.98 207.413H140.168C140.168 209.72 142.034 211.593 144.34 211.593V209.781ZM141.98 207.413C141.98 206.103 143.039 205.045 144.34 205.045V203.233C142.034 203.233 140.168 205.106 140.168 207.413H141.98ZM144.34 205.045C145.642 205.045 146.7 206.103 146.7 207.413H148.513C148.513 205.106 146.647 203.233 144.34 203.233V205.045ZM116.325 104.47V96.5051H114.513V104.47H116.325ZM116.325 96.5051C116.325 95.2104 115.282 94.161 113.985 94.161V95.9731C114.277 95.9731 114.513 96.2069 114.513 96.5051H116.325ZM113.985 94.161H105.632V95.9731H113.985V94.161ZM38.398 109.226V190.389H40.2102V109.226H38.398ZM110.099 109.226V190.389H111.911V109.226H110.099ZM49.4778 100.398H101.129V98.5858H49.4778V100.398ZM50.986 200.111H101.13V198.299H50.986V200.111ZM44.9539 94.161H36.3912V95.9731H44.9539V94.161ZM36.3912 94.161C35.0942 94.161 34.0507 95.2104 34.0507 96.5051H35.8629C35.8629 96.2069 36.0993 95.9731 36.3912 95.9731V94.161ZM34.0507 96.5051V104.879H35.8629V96.5051H34.0507Z" fill="#9042FF"/>
<path d="M45.9245 115.875L2.37207 72.2129M55.4914 105.521L2.37215 52.268M104.858 115.875L148.422 72.2129M95.303 105.521L148.422 52.268M104.671 183.729L128.737 206.827M95.1043 193.154L108.743 206.827M45.7369 183.729L22.2559 206.827M55.2925 193.154L41.6651 206.827M34.9565 194.338V202.302C34.9565 203.099 35.5964 203.74 36.3909 203.74H44.7439M105.422 203.74H113.984C114.779 203.74 115.419 203.099 115.419 202.302V193.928M38.6974 210.433V206.827H35.1553C32.2202 206.827 32.2754 210.533 32.2754 210.533V228.055H33.5333V222.424M38.697 208.785H35.0447C35.0447 208.785 32.264 208.785 32.264 211.362M51.7175 210.433V206.827H55.2595C58.1946 206.827 58.1394 210.533 58.1394 210.533V228.055H56.8815V222.424M51.7174 208.785H55.3697C55.3697 208.785 58.1504 208.785 58.1504 211.362M33.9081 218.884V221.915C33.9081 222.745 34.5811 223.42 35.4087 223.42H55.0057C55.8332 223.42 56.5063 222.745 56.5063 221.915V218.884M68.6889 210.433V206.827H65.1469C62.2118 206.827 62.2669 210.532 62.2669 210.532V228.055H63.5248V222.424M68.6883 208.785H65.0359C65.0359 208.785 62.2553 208.785 62.2553 211.362M81.7087 210.433V206.827H85.2508C88.1859 206.827 88.1307 210.532 88.1307 210.532V228.055H86.8728V222.424M81.7087 208.785H85.3611C85.3611 208.785 88.1417 208.785 88.1417 211.362M63.8993 218.884V221.915C63.8993 222.745 64.5724 223.42 65.4 223.42H84.997C85.8245 223.42 86.4976 222.745 86.4976 221.915V218.884M98.6799 210.433V206.827H95.1378C92.2027 206.827 92.2579 210.532 92.2579 210.532V228.055H93.5158V222.424M98.6795 208.785H95.0272C95.0272 208.785 92.2465 208.785 92.2465 211.362M111.711 210.433V206.827H115.253C118.188 206.827 118.133 210.532 118.133 210.532V228.055H116.875V222.424M111.711 208.785H115.363C115.363 208.785 118.144 208.785 118.144 211.362M93.9016 218.884V221.915C93.9016 222.745 94.5747 223.42 95.4023 223.42H114.999C115.827 223.42 116.5 222.745 116.5 221.915V218.884M75.2095 38.9714C81.157 38.9714 86.5307 41.4271 90.3707 45.3873C90.6576 45.686 91.121 45.7192 91.441 45.4648L93.5706 43.7944C93.9458 43.5068 93.9899 42.9537 93.67 42.6108C89.0355 37.7103 82.4812 34.6572 75.2095 34.6572C67.9379 34.6572 61.3835 37.7103 56.7491 42.6108C56.4291 42.9537 56.4733 43.5068 56.8484 43.7944L58.978 45.4648C59.298 45.7192 59.7615 45.6749 60.0484 45.3873C63.8883 41.4271 69.262 38.9714 75.2095 38.9714ZM54.0458 60.1883C54.0458 56.0733 55.2154 52.2347 57.2347 48.9825C57.4554 48.6285 57.3781 48.175 57.0581 47.9205L54.9285 46.2502C54.5533 45.9626 54.0127 46.04 53.7589 46.4382C51.221 50.4095 49.7534 55.1219 49.7534 60.1883C49.7534 65.2547 51.232 69.9672 53.7589 73.9384C54.0127 74.3367 54.5644 74.4141 54.9285 74.1265L57.0581 72.4561C57.3892 72.2017 57.4554 71.7482 57.2347 71.3942C55.2154 68.1419 54.0458 64.3034 54.0458 60.1883ZM75.2095 81.4053C69.262 81.4053 63.8883 78.9495 60.0484 74.9893C59.7615 74.6907 59.298 74.6575 58.978 74.9119L56.8484 76.5823C56.4733 76.8699 56.4291 77.423 56.7491 77.7659C61.3835 82.6664 67.9379 85.7195 75.2095 85.7195C82.4812 85.7195 89.0355 82.6664 93.67 77.7659C93.9899 77.423 93.9458 76.8699 93.5706 76.5823L91.441 74.9119C91.121 74.6575 90.6576 74.7017 90.3707 74.9893C86.5307 78.9495 81.157 81.4053 75.2095 81.4053ZM95.4908 46.2502L93.3611 47.9205C93.0301 48.175 92.9639 48.6285 93.1846 48.9825C95.2039 52.2347 96.3735 56.0733 96.3735 60.1883C96.3735 64.3034 95.2039 68.1419 93.1846 71.3942C92.9639 71.7482 93.0411 72.2017 93.3611 72.4561L95.4908 74.1265C95.8659 74.4141 96.4066 74.3367 96.6604 73.9384C99.1983 69.9672 100.666 65.2547 100.666 60.1883C100.666 55.1219 99.1873 50.4095 96.6604 46.4382C96.4066 46.04 95.8549 45.9626 95.4908 46.2502ZM75.2095 41.0621C69.9903 41.0621 65.2786 43.1749 61.8359 46.582C61.4939 46.9139 61.538 47.4891 61.9132 47.7878L64.8152 50.0666C65.1242 50.3099 65.5655 50.2878 65.8635 50.0113C68.3241 47.7435 71.6013 46.3497 75.2095 46.3497C78.8178 46.3497 82.0949 47.7435 84.5556 50.0113C84.8535 50.2767 85.2839 50.3099 85.6039 50.0666L88.5059 47.7878C88.881 47.4891 88.9252 46.9249 88.5831 46.582C85.1404 43.1749 80.4288 41.0621 75.2095 41.0621ZM89.0246 60.1884C89.0246 62.5999 88.3956 64.8565 87.3143 66.8256C87.1267 67.1796 87.1929 67.611 87.5129 67.8654L90.437 70.1552C90.8121 70.4539 91.3749 70.3654 91.6177 69.9451C93.3169 67.0911 94.299 63.7503 94.299 60.1884C94.299 56.6264 93.3169 53.2856 91.6177 50.4316C91.3749 50.0223 90.8121 49.9338 90.437 50.2215L87.5129 52.5113C87.1929 52.7547 87.1267 53.1971 87.3143 53.5511C88.3956 55.5202 89.0246 57.7768 89.0246 60.1884ZM61.4058 60.1883C61.4058 57.7768 62.0347 55.5201 63.1161 53.5511C63.3037 53.1971 63.2374 52.7657 62.9175 52.5113L59.9934 50.2214C59.6182 49.9227 59.0554 50.0112 58.8127 50.4316C57.1134 53.2856 56.1313 56.6263 56.1313 60.1883C56.1313 63.7503 57.1134 67.091 58.8127 69.945C59.0554 70.3543 59.6182 70.4428 59.9934 70.1552L62.9175 67.8654C63.2374 67.622 63.3037 67.1795 63.1161 66.8255C62.0347 64.8565 61.4058 62.5998 61.4058 60.1883ZM75.2095 74.027C71.6013 74.027 68.3241 72.6332 65.8635 70.3654C65.5655 70.1 65.1352 70.0668 64.8152 70.3101L61.9132 72.5889C61.538 72.8876 61.4939 73.4517 61.8359 73.7947C65.2786 77.2018 69.9903 79.3146 75.2095 79.3146C80.4288 79.3146 85.1404 77.2018 88.5831 73.7947C88.9252 73.4628 88.881 72.8876 88.5059 72.5889L85.6039 70.3101C85.2949 70.0668 84.8535 70.0889 84.5556 70.3654C82.0949 72.6332 78.8178 74.027 75.2095 74.027ZM75.2095 66.9915C73.7971 66.9915 72.4951 66.5601 71.4137 65.83C71.1268 65.6309 70.7406 65.664 70.4758 65.8853L67.5738 68.1641C67.1655 68.4849 67.1655 69.0933 67.5627 69.4251C69.6372 71.1508 72.2965 72.2017 75.2095 72.2017C78.1226 72.2017 80.7819 71.1619 82.8563 69.4251C83.2535 69.0933 83.2425 68.4849 82.8453 68.1641L79.9433 65.8853C79.6674 65.6751 79.2922 65.6419 79.0053 65.83C77.924 66.5601 76.6219 66.9915 75.2095 66.9915ZM75.2097 53.3852C76.6221 53.3852 77.9241 53.8166 79.0055 54.5467C79.2924 54.7458 79.6786 54.7126 79.9434 54.4914L82.8454 52.2126C83.2537 51.8918 83.2537 51.2834 82.8565 50.9516C80.782 49.2259 78.1227 48.175 75.2097 48.175C72.2966 48.175 69.6373 49.2148 67.5629 50.9516C67.1657 51.2834 67.1767 51.8918 67.5739 52.2126L70.4759 54.4914C70.7518 54.7016 71.127 54.7348 71.4139 54.5467C72.4952 53.8166 73.7973 53.3852 75.2097 53.3852ZM82.0067 60.1883C82.0067 61.0069 81.8633 61.7813 81.5984 62.5113C81.4771 62.8321 81.5653 63.1861 81.8302 63.3963L84.7653 65.6972C85.1736 66.018 85.7694 65.8742 85.9901 65.4096C86.7625 63.8277 87.1928 62.0578 87.1928 60.1883C87.1928 58.3188 86.7515 56.5489 85.9901 54.967C85.7694 54.5024 85.1736 54.3586 84.7653 54.6794L81.8302 56.9803C81.5653 57.1905 81.4771 57.5445 81.5984 57.8653C81.8633 58.5954 82.0067 59.3697 82.0067 60.1883ZM65.6759 65.7083L68.611 63.4074C68.8759 63.1972 68.9641 62.8432 68.8428 62.5224C68.5779 61.7923 68.4345 61.018 68.4345 60.1994C68.4345 59.3808 68.5779 58.5954 68.8428 57.8764C68.9641 57.5556 68.8759 57.2016 68.611 56.9914L65.6759 54.6905C65.2676 54.3697 64.6718 54.5135 64.4511 54.9781C63.6787 56.56 63.2484 58.3299 63.2484 60.1994C63.2484 62.0689 63.6897 63.8388 64.4511 65.4207C64.6718 65.8853 65.2676 66.0291 65.6759 65.7083ZM53.3506 29.2811H97.0796C101.906 29.2811 105.819 33.2036 105.819 38.0422V81.881C105.819 86.7197 101.906 90.6422 97.0796 90.6422H53.3506C48.5241 90.6422 44.6114 86.7197 44.6114 81.881V38.0422C44.6114 33.2036 48.5241 29.2811 53.3506 29.2811Z" stroke="#9042FF" stroke-width="0.906077" stroke-miterlimit="10"/>
</g>
<defs>
<clipPath id="clip0_2002_364">
<rect width="150.409" height="228.331" fill="white"/>
</clipPath>
</defs>
</svg>
