<svg width="275" height="214" viewBox="0 0 275 214" fill="none" xmlns="http://www.w3.org/2000/svg">
<g clip-path="url(#clip0_2002_577)">
<path d="M39.7817 133.362C40.0448 133.862 39.9533 134.397 39.9533 134.92C39.9533 140.002 39.9533 145.073 39.9533 150.156C39.9533 150.679 40.0448 151.213 39.7817 151.714" stroke="#9042FF" stroke-width="1.81215" stroke-linecap="round" stroke-linejoin="round"/>
<path d="M236.311 55.6348H74.6119C70.2751 55.6348 65.9498 55.6348 61.6131 55.6348C60.8619 55.6348 60.0992 55.5777 59.3594 55.8059" stroke="#9042FF" stroke-width="0.906077" stroke-linecap="round" stroke-linejoin="round"/>
<path d="M43.2421 132.668C29.3897 133.771 15.5145 132.918 1.65067 133.191C1.29781 133.191 0.933574 133.135 0.569336 133.407V151.805C1.09293 152.225 1.57099 152.055 2.00352 152.055C14.308 152.055 26.6124 152.055 38.9168 152.077C40.3624 152.077 41.751 152.953 43.2535 152.407" stroke="#9042FF" stroke-width="1.81215" stroke-linecap="round" stroke-linejoin="round"/>
<path d="M199.569 208.497C200.366 209.747 199.523 211.203 200.24 212.681C202.631 212.556 205.18 212.476 207.707 212.283C210.542 212.067 213.376 211.965 216.199 211.84C221.23 211.624 226.249 211.305 231.269 211.032C236.585 210.737 241.912 210.566 247.216 210.077C249.344 209.884 251.507 209.725 253.624 209.782C256.197 209.861 258.291 208.952 260.385 207.78C265.12 205.143 269.73 202.323 273.771 198.65C274.34 198.127 274.431 197.684 274.431 197.058C274.431 163.709 274.431 130.349 274.42 96.9998C274.42 96.5109 274.511 96.0902 273.953 95.5785C268.968 91.0645 263.311 87.6079 257.266 84.7313C255.525 83.9012 253.567 84.356 251.723 84.2423C243.812 83.7875 235.902 83.31 227.991 82.9348C221.81 82.6391 215.629 82.2867 209.449 81.866C206.967 81.6954 204.463 81.8432 201.993 81.4453C201.367 81.3429 200.707 81.3429 200.036 81.6386C199.797 83.3782 199.91 85.1747 199.91 86.9712C199.91 126.904 199.91 166.836 199.91 206.768C199.91 207.291 199.944 207.826 199.74 208.326" stroke="#9042FF" stroke-width="1.81215" stroke-linecap="round" stroke-linejoin="round"/>
<path d="M76.524 62.7297C77.1387 62.9685 77.7875 62.9003 78.4249 62.9003C124.751 62.9003 171.089 62.9003 217.416 62.9003H223.221V67.5735H72.7109C72.3694 66.0726 72.6312 64.5717 72.4946 63.0481C73.8378 62.7184 75.0443 63.105 76.1712 62.7297" stroke="#9042FF" stroke-width="0.906077" stroke-linecap="round" stroke-linejoin="round"/>
<path d="M236.562 30.3586C236.766 21.4102 236.596 12.4732 236.641 3.52474C236.641 2.45594 234.809 0.682172 233.705 0.59121C233.363 0.557099 233.01 0.59121 232.669 0.59121H62.8312C60.532 0.59121 58.9953 2.09209 59.0295 4.40025C59.1206 13.1099 59.0864 21.8309 59.1092 30.5405C59.1319 38.3292 59.1092 46.1178 59.0295 53.9064C58.984 58.5796 59.0181 63.2528 59.0295 67.926C59.0295 68.5059 58.7905 69.1199 59.4848 69.8703H236.653V30.5292" stroke="#9042FF" stroke-width="1.81215" stroke-linecap="round" stroke-linejoin="round"/>
<path d="M223.13 55.9758C223.438 57.4199 223.369 58.8639 223.108 60.4785H72.6771C72.2901 58.8866 72.8023 57.3971 72.3584 55.9758" stroke="#9042FF" stroke-width="0.906077" stroke-linecap="round" stroke-linejoin="round"/>
<path d="M190.292 208.667C189.643 210.18 190.371 211.817 189.825 213.432H147.619C147.186 212.727 147.619 211.965 147.129 211.305C146.503 210.998 145.729 211.089 144.967 211.089C131.854 211.089 118.742 211.089 105.629 211.089C104.081 211.089 103.151 211.87 102.84 213.432H76.9908C77.1843 210.839 76.6607 208.326 77.264 205.768H189.654C190.371 206.587 189.723 207.712 190.383 208.497" stroke="#9042FF" stroke-width="1.81215" stroke-linecap="round" stroke-linejoin="round"/>
<path d="M66.8151 199.15C63.1955 199.105 59.6669 198.263 56.4571 196.819C52.7009 195.125 48.9447 193.351 45.4844 191.043C44.5852 190.441 44.2665 189.827 44.2665 188.769C44.3006 179.127 44.2323 169.497 44.3348 159.855C44.3576 157.819 43.5835 155.955 43.5949 153.965C43.5949 148.132 43.3217 142.288 43.6518 136.489C44.4372 122.935 44.2779 109.371 44.2665 95.8059C44.2665 94.828 44.8698 94.4869 45.5072 94.0776C51.3919 90.314 57.7775 87.5624 64.4134 85.493C65.9387 85.0155 67.7371 85.4248 69.4217 85.4248H199.569" stroke="#9042FF" stroke-width="1.81215" stroke-linecap="round" stroke-linejoin="round"/>
<path d="M236.311 30.3586C178.079 30.3586 119.846 30.3586 61.6248 30.3586C60.8736 30.3586 60.111 30.3016 59.3711 30.5298" stroke="#9042FF" stroke-width="0.906077" stroke-linecap="round" stroke-linejoin="round"/>
<path d="M67.1562 85.9252C67.4294 86.4823 67.327 87.0736 67.327 87.6534C67.327 124.129 67.327 160.594 67.327 197.07C67.327 200.413 67.327 203.767 67.327 207.11C67.327 207.758 67.2018 208.417 67.714 209.19H76.5126" stroke="#9042FF" stroke-width="1.81215" stroke-linecap="round" stroke-linejoin="round"/>
<path d="M137.181 70.3479C137.181 72.1898 137.09 74.0432 137.204 75.8852C137.295 77.4088 136.794 77.8295 135.269 77.8181C124.126 77.7613 112.971 77.784 101.816 77.784C93.9051 77.784 85.9829 77.8409 78.0721 77.7499C75.4769 77.7158 72.8704 77.5907 70.2752 77.6248C69.228 77.6362 68.841 77.2724 68.8751 76.2263C68.932 74.2706 68.8865 72.3035 68.8865 70.3365" stroke="#9042FF" stroke-width="1.81215" stroke-linecap="round" stroke-linejoin="round"/>
<path d="M73.2231 77.9659V85.152" stroke="#9042FF" stroke-width="1.81215" stroke-linecap="round" stroke-linejoin="round"/>
<path d="M190.554 208.497H199.398" stroke="#9042FF" stroke-width="1.81215" stroke-linecap="round" stroke-linejoin="round"/>
<path d="M132.674 78.3071V84.8905" stroke="#9042FF" stroke-width="1.81215" stroke-linecap="round" stroke-linejoin="round"/>
</g>
<defs>
<clipPath id="clip0_2002_577">
<rect width="275" height="214" fill="white"/>
</clipPath>
</defs>
</svg>
