<svg width="380" height="340" viewBox="0 0 380 340" fill="none" xmlns="http://www.w3.org/2000/svg">
<g clip-path="url(#clip0_2031_257)">
<path d="M59.0898 205.231C59.4403 205.9 59.3184 206.614 59.3184 207.313C59.3184 214.106 59.3184 220.883 59.3184 227.676C59.3184 228.375 59.4403 229.089 59.0898 229.757" stroke="white" stroke-width="1.82325" stroke-linecap="round" stroke-linejoin="round"/>
<path d="M321.368 101.353H105.573C99.7854 101.353 94.013 101.353 88.2255 101.353C87.2229 101.353 86.2051 101.277 85.2178 101.581" stroke="white" stroke-width="0.911626" stroke-linecap="round" stroke-linejoin="round"/>
<path d="M63.7081 204.304C45.2214 205.778 26.7043 204.639 8.20237 205.003C7.73146 205.003 7.24537 204.927 6.75928 205.292V229.879C7.45804 230.441 8.09603 230.213 8.67327 230.213C25.0941 230.213 41.5149 230.213 57.9357 230.244C59.8649 230.244 61.7181 231.414 63.7233 230.684" stroke="white" stroke-width="1.82325" stroke-linecap="round" stroke-linejoin="round"/>
<path d="M272.333 305.645C273.396 307.317 272.272 309.262 273.229 311.237C276.419 311.07 279.821 310.964 283.194 310.705C286.976 310.417 290.758 310.28 294.526 310.113C301.24 309.824 307.939 309.398 314.638 309.034C321.732 308.639 328.841 308.411 335.92 307.757C338.76 307.499 341.646 307.286 344.472 307.362C347.905 307.469 350.7 306.253 353.495 304.688C359.814 301.162 365.966 297.394 371.359 292.486C372.118 291.787 372.24 291.194 372.24 290.358C372.24 245.789 372.24 201.204 372.225 156.635C372.225 155.982 372.346 155.42 371.602 154.736C364.948 148.703 357.399 144.083 349.333 140.239C347.009 139.13 344.396 139.737 341.935 139.586C331.378 138.978 320.82 138.339 310.263 137.838C302.015 137.443 293.766 136.972 285.518 136.41C282.206 136.182 278.864 136.379 275.568 135.847C274.733 135.711 273.852 135.711 272.955 136.106C272.636 138.431 272.788 140.832 272.788 143.233C272.788 196.6 272.788 249.968 272.788 303.335C272.788 304.034 272.834 304.749 272.56 305.417" stroke="white" stroke-width="1.82325" stroke-linecap="round" stroke-linejoin="round"/>
<path d="M108.124 110.835C108.944 111.154 109.81 111.063 110.661 111.063C172.486 111.063 234.326 111.063 296.151 111.063H303.898V117.308H103.035C102.579 115.303 102.929 113.297 102.747 111.261C104.539 110.82 106.149 111.336 107.653 110.835" stroke="white" stroke-width="0.911626" stroke-linecap="round" stroke-linejoin="round"/>
<path d="M321.702 67.5726C321.976 55.6135 321.748 43.6696 321.809 31.7105C321.809 30.2821 319.363 27.9116 317.889 27.79C317.434 27.7444 316.963 27.79 316.507 27.79H89.8512C86.7828 27.79 84.7321 29.7959 84.7777 32.8806C84.8992 44.5206 84.8536 56.1757 84.884 67.8157C84.9144 78.2248 84.884 88.6339 84.7777 99.0431C84.7169 105.289 84.7625 111.534 84.7777 117.779C84.7777 118.554 84.4586 119.375 85.3853 120.378H321.824V67.8005" stroke="white" stroke-width="1.82325" stroke-linecap="round" stroke-linejoin="round"/>
<path d="M303.777 101.809C304.187 103.739 304.096 105.668 303.747 107.826H102.99C102.474 105.699 103.157 103.708 102.565 101.809" stroke="white" stroke-width="0.911626" stroke-linecap="round" stroke-linejoin="round"/>
<path d="M259.953 305.873C259.087 307.894 260.059 310.082 259.33 312.24H203.004C202.427 311.298 203.004 310.28 202.351 309.398C201.515 308.988 200.482 309.11 199.465 309.11C181.965 309.11 164.466 309.11 146.967 309.11C144.901 309.11 143.66 310.153 143.245 312.24H108.748C109.006 308.775 108.307 305.417 109.112 301.998H259.102C260.059 303.092 259.193 304.597 260.074 305.645" stroke="white" stroke-width="1.82325" stroke-linecap="round" stroke-linejoin="round"/>
<path d="M95.1667 293.154C90.3362 293.093 85.6271 291.969 81.3434 290.039C76.3306 287.775 71.3178 285.404 66.6999 282.32C65.4999 281.514 65.0745 280.694 65.0745 279.28C65.1201 266.394 65.029 253.524 65.1657 240.638C65.1961 237.917 64.1631 235.425 64.1783 232.766C64.1783 224.971 63.8137 217.16 64.2542 209.41C65.3024 191.297 65.0897 173.168 65.0745 155.04C65.0745 153.733 65.8796 153.277 66.7303 152.73C74.5837 147.7 83.1055 144.023 91.9615 141.257C93.997 140.619 96.3971 141.166 98.6453 141.166H272.332" stroke="white" stroke-width="1.82325" stroke-linecap="round" stroke-linejoin="round"/>
<path d="M321.368 67.5726C243.654 67.5726 165.94 67.5726 88.2406 67.5726C87.238 67.5726 86.2203 67.4966 85.2329 67.8005" stroke="white" stroke-width="0.911626" stroke-linecap="round" stroke-linejoin="round"/>
<path d="M95.623 141.834C95.9876 142.579 95.8509 143.369 95.8509 144.144C95.8509 192.892 95.8509 241.625 95.8509 290.373C95.8509 294.841 95.8509 299.324 95.8509 303.791C95.8509 304.657 95.6838 305.539 96.3674 306.572H108.11" stroke="white" stroke-width="1.82325" stroke-linecap="round" stroke-linejoin="round"/>
<path d="M189.075 121.016C189.075 123.478 188.953 125.955 189.105 128.417C189.227 130.453 188.558 131.015 186.523 131C171.651 130.924 156.765 130.954 141.878 130.954C131.321 130.954 120.748 131.03 110.191 130.909C106.728 130.863 103.249 130.696 99.7857 130.742C98.3882 130.757 97.8717 130.27 97.9173 128.872C97.9933 126.259 97.9325 123.63 97.9325 121.001" stroke="white" stroke-width="1.82325" stroke-linecap="round" stroke-linejoin="round"/>
<path d="M103.719 131.197V140.801" stroke="white" stroke-width="1.82325" stroke-linecap="round" stroke-linejoin="round"/>
<path d="M260.303 305.645H272.106" stroke="white" stroke-width="1.82325" stroke-linecap="round" stroke-linejoin="round"/>
<path d="M183.06 131.653V140.452" stroke="white" stroke-width="1.82325" stroke-linecap="round" stroke-linejoin="round"/>
</g>
<defs>
<clipPath id="clip0_2031_257">
<rect width="367" height="286" fill="white" transform="translate(6 27)"/>
</clipPath>
</defs>
</svg>
