<svg width="54" height="130" viewBox="0 0 54 130" fill="none" xmlns="http://www.w3.org/2000/svg">
<path d="M50.3751 1H3.62487C2.17519 1 1 2.18089 1 3.6376V126.362C1 127.819 2.17519 129 3.62487 129H50.3751C51.8248 129 53 127.819 53 126.362V3.6376C53 2.18089 51.8248 1 50.3751 1Z" stroke="#9042FF" stroke-width="1.0676" stroke-miterlimit="10"/>
<path d="M46.7007 25.6199H7.30697C6.92547 25.6199 6.61621 25.9306 6.61621 26.314V84.362C6.61621 84.7454 6.92547 85.0561 7.30697 85.0561H46.7007C47.0822 85.0561 47.3914 84.7454 47.3914 84.362V26.314C47.3914 25.9306 47.0822 25.6199 46.7007 25.6199Z" stroke="#9042FF" stroke-width="0.533799" stroke-miterlimit="10"/>
<path d="M44.9732 29.4305H9.02637V58.1665H44.9732V29.4305Z" stroke="#9042FF" stroke-width="0.533799" stroke-miterlimit="10"/>
<path d="M38.5221 31.6239H15.4786C14.6431 31.6239 13.9658 32.3045 13.9658 33.144V39.5645C13.9658 40.404 14.6431 41.0846 15.4786 41.0846H38.5221C39.3576 41.0846 40.0349 40.404 40.0349 39.5645V33.144C40.0349 32.3045 39.3576 31.6239 38.5221 31.6239Z" stroke="#9042FF" stroke-width="0.533799" stroke-miterlimit="10"/>
<path d="M1.93945 128.382L4.62649 88.9154L7.72107 85.3616L12.5909 90.8381H41.2986L46.203 85.4032L49.194 88.9154L51.8741 128.382" stroke="#9042FF" stroke-width="0.533799" stroke-miterlimit="10"/>
<path d="M2.26367 1.38159L5.15793 3.35979L7.53413 16.5131V25.6198" stroke="#9042FF" stroke-width="0.533799" stroke-miterlimit="10"/>
<path d="M51.6181 1.38159L48.7238 3.35979L46.3477 16.5131V25.6198" stroke="#9042FF" stroke-width="0.533799" stroke-miterlimit="10"/>
<path d="M5.1582 3.35999H48.7241" stroke="#9042FF" stroke-width="0.533799" stroke-miterlimit="10"/>
<path d="M2.92676 113.841L6.11114 117.041H47.3837L51.0171 113.39" stroke="#9042FF" stroke-width="0.533799" stroke-miterlimit="10"/>
<path d="M3.58301 104.227H19.4013L21.7015 108.302H32.0352L34.4874 104.227H50.2297" stroke="#9042FF" stroke-width="0.533799" stroke-miterlimit="10"/>
<path d="M3.20996 109.69H7.83802L10.2142 105.609H14.2689L16.5692 109.69H37.4714L39.9236 105.609H43.6744L45.9677 109.69H50.6026" stroke="#9042FF" stroke-width="0.533799" stroke-miterlimit="10"/>
</svg>
