<svg width="380" height="340" viewBox="0 0 380 340" fill="none" xmlns="http://www.w3.org/2000/svg">
<path d="M81.9321 44.4781V275.077L113.039 306.261H267.337L298.069 275.452V44.4781L264.503 10.8287H115.01L81.9321 44.4781Z" stroke="white" stroke-width="2.02381" stroke-miterlimit="10"/>
<path d="M265.055 10.8286H277.335C286.553 10.8286 294.045 18.3226 294.045 27.5799V40.2984C294.045 30.633 300.185 21.8982 300.185 21.8982V1.81628H282.628C282.628 1.81628 272.645 10.8286 260.821 10.8286" stroke="white" stroke-width="2.02381" stroke-miterlimit="10"/>
<path d="M292.042 14.8288C294.705 14.8288 296.863 12.6651 296.863 9.99604C296.863 7.32701 294.705 5.16333 292.042 5.16333C289.38 5.16333 287.222 7.32701 287.222 9.99604C287.222 12.6651 289.38 14.8288 292.042 14.8288Z" stroke="white" stroke-width="2.02381" stroke-miterlimit="10"/>
<path d="M114.944 10.8286H102.664C93.4457 10.8286 85.9539 18.3226 85.9539 27.5799V40.2984C85.9539 30.633 79.814 21.8982 79.814 21.8982V1.81628H97.3707C97.3707 1.81628 107.354 10.8286 119.178 10.8286" stroke="white" stroke-width="2.02381" stroke-miterlimit="10"/>
<path d="M87.9575 14.8288C90.6199 14.8288 92.7783 12.6651 92.7783 9.99604C92.7783 7.32701 90.6199 5.16333 87.9575 5.16333C85.2951 5.16333 83.1367 7.32701 83.1367 9.99604C83.1367 12.6651 85.2951 14.8288 87.9575 14.8288Z" stroke="white" stroke-width="2.02381" stroke-miterlimit="10"/>
<path d="M114.944 306.293H102.664C93.4457 306.293 85.9539 298.799 85.9539 289.542V279.567C85.9539 289.232 79.814 295.224 79.814 295.224V315.306H97.3707C97.3707 315.306 107.354 306.293 119.178 306.293" stroke="white" stroke-width="2.02381" stroke-miterlimit="10"/>
<path d="M87.9575 311.959C90.6199 311.959 92.7783 309.795 92.7783 307.126C92.7783 304.457 90.6199 302.293 87.9575 302.293C85.2951 302.293 83.1367 304.457 83.1367 307.126C83.1367 309.795 85.2951 311.959 87.9575 311.959Z" stroke="white" stroke-width="2.02381" stroke-miterlimit="10"/>
<path d="M265.055 306.293H277.335C286.553 306.293 294.045 298.799 294.045 289.542V279.567C294.045 289.232 300.185 295.224 300.185 295.224V315.306H282.628C282.628 315.306 272.645 306.293 260.821 306.293" stroke="white" stroke-width="2.02381" stroke-miterlimit="10"/>
<path d="M292.042 311.959C294.705 311.959 296.863 309.795 296.863 307.126C296.863 304.457 294.705 302.293 292.042 302.293C289.38 302.293 287.222 304.457 287.222 307.126C287.222 309.795 289.38 311.959 292.042 311.959Z" stroke="white" stroke-width="2.02381" stroke-miterlimit="10"/>
<path d="M146.784 172.022L82.5015 107.581" stroke="white" stroke-width="1.0119" stroke-miterlimit="10"/>
<path d="M160.905 156.741L82.502 78.1438" stroke="white" stroke-width="1.0119" stroke-miterlimit="10"/>
<path d="M233.77 172.022L298.068 107.581" stroke="white" stroke-width="1.0119" stroke-miterlimit="10"/>
<path d="M219.666 156.741L298.069 78.1438" stroke="white" stroke-width="1.0119" stroke-miterlimit="10"/>
<path d="M233.493 272.171L269.013 306.261" stroke="white" stroke-width="1.0119" stroke-miterlimit="10"/>
<path d="M219.372 286.081L239.502 306.261" stroke="white" stroke-width="1.0119" stroke-miterlimit="10"/>
<path d="M146.507 272.171L111.85 306.261" stroke="white" stroke-width="1.0119" stroke-miterlimit="10"/>
<path d="M160.611 286.081L140.498 306.261" stroke="white" stroke-width="1.0119" stroke-miterlimit="10"/>
<path d="M130.595 287.828V299.583C130.595 300.759 131.54 301.706 132.712 301.706H145.041" stroke="white" stroke-width="0.839881" stroke-miterlimit="10"/>
<path d="M234.601 301.706H247.239C248.411 301.706 249.356 300.759 249.356 299.583V287.224" stroke="white" stroke-width="0.839881" stroke-miterlimit="10"/>
<path d="M249.356 155.19V143.434C249.356 142.259 248.412 141.312 247.239 141.312H234.91" stroke="white" stroke-width="2.02381" stroke-miterlimit="10"/>
<path d="M137.012 162.21V281.999" stroke="white" stroke-width="2.02381" stroke-miterlimit="10"/>
<path d="M242.84 162.21V281.999" stroke="white" stroke-width="2.02381" stroke-miterlimit="10"/>
<path d="M152.027 147.843H228.264" stroke="white" stroke-width="2.02381" stroke-miterlimit="10"/>
<path d="M154.254 295.012H228.265" stroke="white" stroke-width="2.02381" stroke-miterlimit="10" stroke-linecap="square"/>
<path d="M145.351 141.312H132.712C131.54 141.312 130.595 142.259 130.595 143.434V155.794" stroke="white" stroke-width="2.02381" stroke-miterlimit="10"/>
<path d="M190.008 58.519C198.786 58.519 206.718 62.1436 212.386 67.9885C212.809 68.4294 213.493 68.4783 213.965 68.1028L217.109 65.6375C217.662 65.213 217.728 64.3967 217.255 63.8905C210.415 56.6578 200.741 52.1516 190.008 52.1516C179.275 52.1516 169.601 56.6578 162.761 63.8905C162.289 64.3967 162.354 65.213 162.907 65.6375L166.051 68.1028C166.523 68.4783 167.207 68.413 167.631 67.9885C173.298 62.1436 181.23 58.519 190.008 58.519Z" stroke="white" stroke-width="1.0119" stroke-miterlimit="10"/>
<path d="M158.771 89.8338C158.771 83.7603 160.497 78.0949 163.478 73.2948C163.803 72.7724 163.689 72.103 163.217 71.7275L160.074 69.2621C159.52 68.8376 158.722 68.9519 158.348 69.5397C154.602 75.401 152.436 82.3562 152.436 89.8338C152.436 97.3114 154.618 104.267 158.348 110.128C158.722 110.716 159.536 110.83 160.074 110.405L163.217 107.94C163.706 107.565 163.803 106.895 163.478 106.373C160.497 101.573 158.771 95.9073 158.771 89.8338Z" stroke="white" stroke-width="1.0119" stroke-miterlimit="10"/>
<path d="M190.008 121.148C181.23 121.148 173.298 117.524 167.631 111.679C167.207 111.238 166.523 111.189 166.051 111.565L162.907 114.03C162.354 114.454 162.289 115.271 162.761 115.777C169.601 123.01 179.275 127.516 190.008 127.516C200.741 127.516 210.415 123.01 217.255 115.777C217.728 115.271 217.662 114.454 217.109 114.03L213.965 111.565C213.493 111.189 212.809 111.254 212.386 111.679C206.718 117.524 198.786 121.148 190.008 121.148Z" stroke="white" stroke-width="1.0119" stroke-miterlimit="10"/>
<path d="M219.943 69.2621L216.8 71.7275C216.311 72.103 216.214 72.7724 216.539 73.2948C219.52 78.0949 221.246 83.7603 221.246 89.8338C221.246 95.9073 219.52 101.573 216.539 106.373C216.214 106.895 216.328 107.565 216.8 107.94L219.943 110.405C220.497 110.83 221.295 110.716 221.67 110.128C225.416 104.267 227.582 97.3114 227.582 89.8338C227.582 82.3562 225.399 75.401 221.67 69.5397C221.295 68.9519 220.481 68.8376 219.943 69.2621Z" stroke="white" stroke-width="1.0119" stroke-miterlimit="10"/>
<path d="M190.008 61.6049C182.305 61.6049 175.35 64.7233 170.269 69.7519C169.764 70.2417 169.829 71.0907 170.383 71.5315L174.666 74.8948C175.122 75.254 175.774 75.2214 176.214 74.8132C179.845 71.4662 184.683 69.409 190.008 69.409C195.334 69.409 200.171 71.4662 203.803 74.8132C204.243 75.205 204.878 75.254 205.35 74.8948L209.633 71.5315C210.187 71.0907 210.252 70.258 209.747 69.7519C204.666 64.7233 197.712 61.6049 190.008 61.6049Z" stroke="white" stroke-width="1.0119" stroke-miterlimit="10"/>
<path d="M210.399 89.8338C210.399 93.393 209.471 96.7237 207.875 99.6298C207.598 100.152 207.696 100.789 208.168 101.165L212.484 104.544C213.037 104.985 213.868 104.854 214.226 104.234C216.734 100.022 218.184 95.091 218.184 89.8338C218.184 84.5766 216.734 79.6459 214.226 75.4336C213.868 74.8295 213.037 74.6989 212.484 75.1234L208.168 78.503C207.696 78.8622 207.598 79.5153 207.875 80.0378C209.471 82.9439 210.399 86.2746 210.399 89.8338Z" stroke="white" stroke-width="1.0119" stroke-miterlimit="10"/>
<path d="M169.635 89.8337C169.635 86.2745 170.563 82.9438 172.159 80.0377C172.436 79.5152 172.338 78.8785 171.866 78.503L167.55 75.1233C166.996 74.6825 166.166 74.8131 165.807 75.4335C163.299 79.6458 161.85 84.5765 161.85 89.8337C161.85 95.0909 163.299 100.022 165.807 104.234C166.166 104.838 166.996 104.969 167.55 104.544L171.866 101.164C172.338 100.805 172.436 100.152 172.159 99.6298C170.563 96.7236 169.635 93.3929 169.635 89.8337Z" stroke="white" stroke-width="1.0119" stroke-miterlimit="10"/>
<path d="M190.008 110.259C184.683 110.259 179.845 108.201 176.214 104.854C175.774 104.463 175.139 104.414 174.666 104.773L170.383 108.136C169.829 108.577 169.764 109.41 170.269 109.916C175.35 114.944 182.305 118.063 190.008 118.063C197.712 118.063 204.666 114.944 209.747 109.916C210.252 109.426 210.187 108.577 209.633 108.136L205.35 104.773C204.894 104.414 204.243 104.446 203.803 104.854C200.171 108.201 195.334 110.259 190.008 110.259Z" stroke="white" stroke-width="1.0119" stroke-miterlimit="10"/>
<path d="M190.008 99.8748C187.924 99.8748 186.002 99.238 184.406 98.1605C183.982 97.8666 183.412 97.9156 183.022 98.2421L178.738 101.605C178.136 102.079 178.136 102.977 178.722 103.467C181.784 106.014 185.709 107.565 190.008 107.565C194.308 107.565 198.233 106.03 201.295 103.467C201.881 102.977 201.865 102.079 201.279 101.605L196.995 98.2421C196.588 97.9319 196.034 97.8829 195.611 98.1605C194.015 99.238 192.093 99.8748 190.008 99.8748Z" stroke="white" stroke-width="1.0119" stroke-miterlimit="10"/>
<path d="M190.008 79.7929C192.093 79.7929 194.015 80.4297 195.611 81.5072C196.034 81.8011 196.604 81.7521 196.995 81.4256L201.278 78.0623C201.881 77.5888 201.881 76.6908 201.295 76.201C198.233 73.6541 194.308 72.103 190.008 72.103C185.709 72.103 181.784 73.6377 178.722 76.201C178.135 76.6908 178.152 77.5888 178.738 78.0623L183.021 81.4256C183.428 81.7358 183.982 81.7848 184.406 81.5072C186.002 80.4297 187.924 79.7929 190.008 79.7929Z" stroke="white" stroke-width="1.0119" stroke-miterlimit="10"/>
<path d="M200.041 89.8338C200.041 91.042 199.829 92.1848 199.438 93.2624C199.259 93.7359 199.39 94.2583 199.78 94.5685L204.113 97.9645C204.715 98.438 205.595 98.2257 205.92 97.54C207.06 95.2053 207.696 92.593 207.696 89.8338C207.696 87.0746 207.044 84.4623 205.92 82.1276C205.595 81.4418 204.715 81.2296 204.113 81.7031L199.78 85.099C199.39 85.4092 199.259 85.9317 199.438 86.4052C199.829 87.4827 200.041 88.6256 200.041 89.8338Z" stroke="white" stroke-width="1.0119" stroke-miterlimit="10"/>
<path d="M175.937 97.9807L180.269 94.5848C180.66 94.2746 180.79 93.7521 180.611 93.2786C180.22 92.2011 180.008 91.0582 180.008 89.85C180.008 88.6418 180.22 87.4826 180.611 86.4214C180.79 85.9479 180.66 85.4255 180.269 85.1153L175.937 81.7193C175.334 81.2458 174.454 81.4581 174.129 82.1438C172.989 84.4785 172.354 87.0908 172.354 89.85C172.354 92.6092 173.005 95.2215 174.129 97.5562C174.454 98.242 175.334 98.4542 175.937 97.9807Z" stroke="white" stroke-width="1.0119" stroke-miterlimit="10"/>
<path d="M222.288 44.2169H157.745C150.621 44.2169 144.846 50.0062 144.846 57.1477V121.851C144.846 128.992 150.621 134.781 157.745 134.781H222.288C229.411 134.781 235.186 128.992 235.186 121.851V57.1477C235.186 50.0062 229.411 44.2169 222.288 44.2169Z" stroke="white" stroke-width="1.0119" stroke-miterlimit="10"/>
<path d="M136.117 311.583V306.261H130.889C126.557 306.261 126.638 311.73 126.638 311.73V337.592H128.495V329.282" stroke="white" stroke-width="1.0119" stroke-miterlimit="10"/>
<path d="M136.117 309.151H130.726C130.726 309.151 126.622 309.151 126.622 312.955" stroke="white" stroke-width="1.0119" stroke-miterlimit="10"/>
<path d="M155.334 311.583V306.261H160.562C164.895 306.261 164.813 311.73 164.813 311.73V337.592H162.957V329.282" stroke="white" stroke-width="1.0119" stroke-miterlimit="10"/>
<path d="M155.334 309.151H160.725C160.725 309.151 164.829 309.151 164.829 312.955" stroke="white" stroke-width="1.0119" stroke-miterlimit="10"/>
<path d="M129.048 324.057V328.531C129.048 329.755 130.042 330.751 131.263 330.751H160.188C161.409 330.751 162.403 329.755 162.403 328.531V324.057" stroke="white" stroke-width="1.0119" stroke-miterlimit="10"/>
<path d="M180.384 311.583V306.261H175.156C170.823 306.261 170.905 311.73 170.905 311.73V337.592H172.762V329.282" stroke="white" stroke-width="1.0119" stroke-miterlimit="10"/>
<path d="M180.382 309.151H174.991C174.991 309.151 170.887 309.151 170.887 312.955" stroke="white" stroke-width="1.0119" stroke-miterlimit="10"/>
<path d="M199.6 311.583V306.261H204.828C209.16 306.261 209.078 311.73 209.078 311.73V337.592H207.222V329.282" stroke="white" stroke-width="1.0119" stroke-miterlimit="10"/>
<path d="M199.6 309.151H204.99C204.99 309.151 209.095 309.151 209.095 312.955" stroke="white" stroke-width="1.0119" stroke-miterlimit="10"/>
<path d="M173.313 324.057V328.531C173.313 329.755 174.307 330.751 175.528 330.751H204.453C205.675 330.751 206.668 329.755 206.668 328.531V324.057" stroke="white" stroke-width="1.0119" stroke-miterlimit="10"/>
<path d="M224.65 311.583V306.261H219.422C215.09 306.261 215.171 311.73 215.171 311.73V337.592H217.028V329.282" stroke="white" stroke-width="1.0119" stroke-miterlimit="10"/>
<path d="M224.649 309.151H219.258C219.258 309.151 215.154 309.151 215.154 312.955" stroke="white" stroke-width="1.0119" stroke-miterlimit="10"/>
<path d="M243.884 311.583V306.261H249.112C253.444 306.261 253.363 311.73 253.363 311.73V337.592H251.506V329.282" stroke="white" stroke-width="1.0119" stroke-miterlimit="10"/>
<path d="M243.884 309.151H249.275C249.275 309.151 253.379 309.151 253.379 312.955" stroke="white" stroke-width="1.0119" stroke-miterlimit="10"/>
<path d="M217.597 324.057V328.53C217.597 329.755 218.591 330.751 219.812 330.751H248.737C249.958 330.751 250.952 329.755 250.952 328.53V324.057" stroke="white" stroke-width="1.0119" stroke-miterlimit="10"/>
</svg>
