<svg width="90" height="218" viewBox="0 0 90 218" fill="none" xmlns="http://www.w3.org/2000/svg">
<g clip-path="url(#clip0_2002_595)">
<path d="M84.9265 0.58783H5.07333C2.59717 0.58783 0.589844 2.58819 0.589844 5.05577V212.944C0.589844 215.412 2.59717 217.412 5.07333 217.412H84.9265C87.4027 217.412 89.41 215.412 89.41 212.944V5.05577C89.41 2.58819 87.4027 0.58783 84.9265 0.58783Z" stroke="#9042FF" stroke-width="1.81215" stroke-miterlimit="10"/>
<path d="M78.6501 42.2925H11.3625C10.7109 42.2925 10.1826 42.8189 10.1826 43.4683V141.798C10.1826 142.447 10.7109 142.974 11.3625 142.974H78.6501C79.3017 142.974 79.83 142.447 79.83 141.798V43.4683C79.83 42.8189 79.3017 42.2925 78.6501 42.2925Z" stroke="#9042FF" stroke-width="0.906077" stroke-miterlimit="10"/>
<path d="M75.6999 48.7475H14.2998V97.4245H75.6999V48.7475Z" stroke="#9042FF" stroke-width="0.906077" stroke-miterlimit="10"/>
<path d="M64.6805 52.4629H25.3202C23.8932 52.4629 22.7363 53.6157 22.7363 55.0378V65.9137C22.7363 67.3358 23.8932 68.4887 25.3202 68.4887H64.6805C66.1075 68.4887 67.2644 67.3358 67.2644 65.9137V55.0378C67.2644 53.6157 66.1075 52.4629 64.6805 52.4629Z" stroke="#9042FF" stroke-width="0.906077" stroke-miterlimit="10"/>
<path d="M2.19434 216.366L6.78401 149.511L12.0698 143.491L20.3878 152.768H69.423L77.8 143.562L82.9088 149.511L87.4867 216.366" stroke="#9042FF" stroke-width="0.906077" stroke-miterlimit="10"/>
<path d="M2.74902 1.2345L7.69265 4.58545L11.7514 26.8663V42.2925" stroke="#9042FF" stroke-width="0.906077" stroke-miterlimit="10"/>
<path d="M87.0502 1.2345L82.1066 4.58545L78.0479 26.8663V42.2925" stroke="#9042FF" stroke-width="0.906077" stroke-miterlimit="10"/>
<path d="M7.69238 4.58551H82.1064" stroke="#9042FF" stroke-width="0.906077" stroke-miterlimit="10"/>
<path d="M3.88184 191.733L9.32101 197.153H79.8179L86.0239 190.969" stroke="#9042FF" stroke-width="0.906077" stroke-miterlimit="10"/>
<path d="M5.00293 175.449H32.0218L35.9508 182.351H53.6015L57.79 175.449H84.6791" stroke="#9042FF" stroke-width="0.906077" stroke-miterlimit="10"/>
<path d="M4.36523 184.702H12.2703L16.3291 177.789H23.2549L27.1838 184.702H62.8865L67.075 177.789H73.4816L77.3988 184.702H85.3157" stroke="#9042FF" stroke-width="0.906077" stroke-miterlimit="10"/>
</g>
<defs>
<clipPath id="clip0_2002_595">
<rect width="90" height="218" fill="white"/>
</clipPath>
</defs>
</svg>
