<svg width="165" height="129" viewBox="0 0 165 129" fill="none" xmlns="http://www.w3.org/2000/svg">
<path d="M24.5249 80.571C24.6817 80.8695 24.6272 81.1884 24.6272 81.5005C24.6272 84.5329 24.6272 87.5586 24.6272 90.5911C24.6272 90.9032 24.6817 91.222 24.5249 91.5205" stroke="#9042FF" stroke-width="1.08008" stroke-linecap="round" stroke-linejoin="round"/>
<path d="M141.497 34.1952H45.2554C42.6742 34.1952 40.0998 34.1952 37.5186 34.1952C37.0715 34.1952 36.6176 34.1612 36.1772 34.2972" stroke="#9042FF" stroke-width="0.54004" stroke-linecap="round" stroke-linejoin="round"/>
<path d="M26.5845 80.1572C18.3396 80.8153 10.0812 80.3065 1.82963 80.4693C1.61962 80.4693 1.40283 80.4354 1.18604 80.5982V91.5748C1.49767 91.8258 1.78221 91.7241 2.03965 91.7241C9.36313 91.7241 16.6866 91.7241 24.0101 91.7376C24.8705 91.7376 25.697 92.26 26.5913 91.9344" stroke="#9042FF" stroke-width="1.08008" stroke-linecap="round" stroke-linejoin="round"/>
<path d="M119.629 125.4C120.103 126.146 119.602 127.015 120.029 127.897C121.451 127.822 122.969 127.775 124.473 127.659C126.16 127.53 127.847 127.469 129.527 127.395C132.521 127.266 135.509 127.076 138.497 126.913C141.66 126.737 144.831 126.635 147.988 126.343C149.255 126.228 150.542 126.133 151.802 126.167C153.333 126.214 154.58 125.672 155.826 124.973C158.645 123.399 161.388 121.716 163.793 119.525C164.132 119.213 164.186 118.949 164.186 118.575C164.186 98.6777 164.186 78.7733 164.179 58.8756C164.179 58.5839 164.234 58.3329 163.902 58.0276C160.934 55.3343 157.567 53.272 153.97 51.5556C152.933 51.0604 151.768 51.3317 150.671 51.2639C145.962 50.9925 141.254 50.7076 136.545 50.4837C132.867 50.3074 129.188 50.097 125.509 49.846C124.032 49.7443 122.542 49.8325 121.072 49.595C120.699 49.534 120.306 49.534 119.907 49.7104C119.764 50.7483 119.832 51.8202 119.832 52.8921C119.832 76.7177 119.832 100.543 119.832 124.369C119.832 124.681 119.852 125 119.731 125.298" stroke="#9042FF" stroke-width="1.08008" stroke-linecap="round" stroke-linejoin="round"/>
<path d="M46.3939 38.4284C46.7597 38.5709 47.1459 38.5302 47.5252 38.5302C75.0984 38.5302 102.678 38.5302 130.251 38.5302H133.707V41.3184H44.1243C43.9211 40.4229 44.0769 39.5274 43.9956 38.6184C44.795 38.4216 45.5131 38.6523 46.1838 38.4284" stroke="#9042FF" stroke-width="0.54004" stroke-linecap="round" stroke-linejoin="round"/>
<path d="M141.647 19.1142C141.768 13.7752 141.667 8.44288 141.694 3.10382C141.694 2.46611 140.603 1.4078 139.946 1.35353C139.743 1.33318 139.533 1.35353 139.33 1.35353H38.2439C36.8754 1.35353 35.9609 2.24902 35.9812 3.62619C36.0354 8.82279 36.015 14.0262 36.0286 19.2228C36.0421 23.8698 36.0286 28.5169 35.9812 33.164C35.9541 35.9523 35.9744 38.7405 35.9812 41.5288C35.9812 41.8748 35.8389 42.2411 36.2522 42.6889H141.701V19.216" stroke="#9042FF" stroke-width="1.08008" stroke-linecap="round" stroke-linejoin="round"/>
<path d="M133.652 34.3986C133.835 35.2602 133.794 36.1218 133.639 37.0851H44.1038C43.8734 36.1353 44.1783 35.2466 43.9141 34.3986" stroke="#9042FF" stroke-width="0.54004" stroke-linecap="round" stroke-linejoin="round"/>
<path d="M114.107 125.502C113.721 126.404 114.154 127.381 113.829 128.344H88.7085C88.4511 127.924 88.7085 127.469 88.4172 127.076C88.0446 126.893 87.5839 126.947 87.13 126.947C79.3256 126.947 71.5211 126.947 63.7166 126.947C62.7952 126.947 62.242 127.413 62.0568 128.344H46.6714C46.7866 126.798 46.4749 125.298 46.834 123.772H113.728C114.154 124.26 113.768 124.932 114.161 125.4" stroke="#9042FF" stroke-width="1.08008" stroke-linecap="round" stroke-linejoin="round"/>
<path d="M40.6151 119.824C38.4607 119.797 36.3605 119.295 34.4501 118.433C32.2144 117.422 29.9787 116.364 27.9192 114.987C27.384 114.627 27.1943 114.261 27.1943 113.63C27.2147 107.877 27.174 102.131 27.235 96.378C27.2485 95.1637 26.7879 94.0511 26.7946 92.8639C26.7946 89.3836 26.632 85.8966 26.8285 82.4367C27.296 74.3501 27.2011 66.2567 27.1943 58.1633C27.1943 57.5799 27.5534 57.3764 27.9328 57.1322C31.4353 54.8866 35.2359 53.2449 39.1856 52.0102C40.0934 51.7253 41.1638 51.9695 42.1665 51.9695H119.629" stroke="#9042FF" stroke-width="1.08008" stroke-linecap="round" stroke-linejoin="round"/>
<path d="M141.497 19.1142C106.838 19.1142 72.1782 19.1142 37.5255 19.1142C37.0783 19.1142 36.6244 19.0802 36.1841 19.2162" stroke="#9042FF" stroke-width="0.54004" stroke-linecap="round" stroke-linejoin="round"/>
<path d="M40.8184 52.2679C40.981 52.6004 40.92 52.9531 40.92 53.2991C40.92 75.0624 40.92 96.8189 40.92 118.582C40.92 120.577 40.92 122.578 40.92 124.573C40.92 124.959 40.8455 125.353 41.1503 125.814H46.3872" stroke="#9042FF" stroke-width="1.08008" stroke-linecap="round" stroke-linejoin="round"/>
<path d="M82.4962 42.9737C82.4962 44.0727 82.442 45.1785 82.5097 46.2775C82.5639 47.1866 82.2659 47.4376 81.358 47.4308C74.7256 47.3969 68.0864 47.4105 61.4471 47.4105C56.7387 47.4105 52.0235 47.4444 47.315 47.3901C45.7704 47.3698 44.219 47.2952 42.6744 47.3155C42.0511 47.3223 41.8207 47.1052 41.8411 46.4811C41.8749 45.3142 41.8478 44.1406 41.8478 42.9669" stroke="#9042FF" stroke-width="1.08008" stroke-linecap="round" stroke-linejoin="round"/>
<path d="M44.4292 47.5191V51.8066" stroke="#9042FF" stroke-width="1.08008" stroke-linecap="round" stroke-linejoin="round"/>
<path d="M114.263 125.4H119.527" stroke="#9042FF" stroke-width="1.08008" stroke-linecap="round" stroke-linejoin="round"/>
<path d="M79.8135 47.7225V51.6505" stroke="#9042FF" stroke-width="1.08008" stroke-linecap="round" stroke-linejoin="round"/>
</svg>
